<svg id="Logo" xmlns="http://www.w3.org/2000/svg" xmlns:xlink="http://www.w3.org/1999/xlink" width="533.855" height="100.209" viewBox="0 0 533.855 100.209">
  <defs>
    <clipPath id="clip-path">
      <rect id="Rectangle_30" data-name="Rectangle 30" width="533.855" height="100.209" fill="none"/>
    </clipPath>
  </defs>
  <g id="Group_17" data-name="Group 17" clip-path="url(#clip-path)">
    <path id="Path_1" data-name="Path 1" d="M143.554,12.566q-.462,1.161-1.042,2.867T141.3,19.125q-.637,1.986-1.2,3.792t-.986,3.215q-.422,1.41-.581,1.91-.091.287-.287.98t-.427,1.6q-.232.9-.5,1.881t-.511,1.814c-.161.558-.3,1.033-.42,1.425s-.2.626-.229.7a.544.544,0,0,1-.427.305.921.921,0,0,1-.54-.085.532.532,0,0,1-.322-.424,6.29,6.29,0,0,1,.159-1.792q.235-1.3.65-2.974t.944-3.582q.532-1.9,1.042-3.614t.911-3.05q.4-1.338.586-1.877a12.906,12.906,0,0,0,.361-1.263,12.712,12.712,0,0,1,.361-1.263q.095-.253.2-.473c.066-.146.134-.293.2-.439q.44-1.089.824-2.2t.785-2.231q-1.632.429-3.241.888t-3.241.887l-.2.032a1.019,1.019,0,0,0-.543.324,1.673,1.673,0,0,1-.941.387c-.2.032-.538.068-1.019.111a13.205,13.205,0,0,1-1.471.046,6.43,6.43,0,0,1-1.35-.16c-.4-.094-.62-.263-.658-.507a.7.7,0,0,1,.2-.693,1.586,1.586,0,0,1,.662-.326q2.162-.513,4.13-.96t4.142-1.1q.907-.278,1.8-.523t1.8-.524a2.58,2.58,0,0,0,.758-.358,5.373,5.373,0,0,0,.529-.423q.221-.206.383-.367a.611.611,0,0,1,.328-.188.765.765,0,0,1,.616.14.8.8,0,0,0,.65.135,6.494,6.494,0,0,0,1.111-.278q.549-.189,1.1-.344,1.856-.5,3.683-.991t3.683-.991q.852-.2,1.731-.444a16.007,16.007,0,0,1,1.741-.378c.133-.021.332-.047.6-.078a4.693,4.693,0,0,1,.8-.024,2.266,2.266,0,0,1,.7.143.55.55,0,0,1,.361.453.792.792,0,0,1-.077.589.812.812,0,0,1-.4.284,1.883,1.883,0,0,1-.561.106,5.176,5.176,0,0,0-.536.051,16.843,16.843,0,0,0-2.667.644q-1.276.423-2.608.8L149.79,9.029q-2.048.6-4.088,1.226a2.611,2.611,0,0,0-.784.413q-.364.28-.691.569a4.429,4.429,0,0,0-.673,1.33m19.791,10.713a.578.578,0,0,1-.226.393q-.558.565-1.319,1.331t-1.6,1.476a14.436,14.436,0,0,1-1.721,1.258,4.584,4.584,0,0,1-1.678.674,1.685,1.685,0,0,1-1.357-.312,2.953,2.953,0,0,1-.872-1.1,3.179,3.179,0,0,1-.128-.329c-.191.258-.376.523-.583.764a7.031,7.031,0,0,1-.848.865,3.435,3.435,0,0,1-1.123.637,1.659,1.659,0,0,1-1.015.024,1.54,1.54,0,0,1-.793-.6,2.856,2.856,0,0,1-.447-1.221,3.958,3.958,0,0,1-.034-.861q.029-.463.093-.915a3.852,3.852,0,0,0,.009-1.344c-.073-.248-.193-.354-.357-.318a1.256,1.256,0,0,0-.566.4,8.144,8.144,0,0,0-.655.8,11.825,11.825,0,0,0-1.5,2.667q-.6,1.471-1.05,2.494a1.74,1.74,0,0,1-.388.554,1.07,1.07,0,0,1-.6.315.958.958,0,0,1-.968-.322,2.054,2.054,0,0,1-.428-.986,8.209,8.209,0,0,1,.031-2.061q.145-1.331.481-2.964t.825-3.376q.488-1.743,1.039-3.309a29.11,29.11,0,0,1,1.124-2.778,7.754,7.754,0,0,1,1.062-1.766,1.416,1.416,0,0,1,.7-.314.8.8,0,0,1,.644.2.922.922,0,0,1,.361.555.974.974,0,0,1-.081.455c-.072.193-.132.349-.181.471q-.524,1.2-1.023,2.66t-.957,2.972q-.457,1.517-.814,3.017t-.626,2.8q.412-.609.723-1.117t.615-.947c.2-.291.414-.569.633-.83a7.387,7.387,0,0,1,.746-.764,5.4,5.4,0,0,1,.852-.628,1.744,1.744,0,0,1,.878-.258,1.647,1.647,0,0,1,.68.113,1.34,1.34,0,0,1,.58.435,1.736,1.736,0,0,1,.313.8,3.23,3.23,0,0,1-.081,1.2,6.066,6.066,0,0,0-.221,2.464q.178.7.668.574a2.569,2.569,0,0,0,1.152-.981,10.358,10.358,0,0,0,1.069-1.758,6.917,6.917,0,0,1,.712-1.906,7.431,7.431,0,0,1,1.514-1.922,3.783,3.783,0,0,1,1.968-.991,2.323,2.323,0,0,1,1.089.116,1.255,1.255,0,0,1,.809.705,1.222,1.222,0,0,1-.134,1.091,7.213,7.213,0,0,1-.883,1.3,12.5,12.5,0,0,1-1.151,1.2q-.609.555-.937.845a2.67,2.67,0,0,1-1.455.468q-.125,1.141.27,1.384a1.186,1.186,0,0,0,1.082-.035,6.648,6.648,0,0,0,1.533-.94q.846-.66,1.622-1.345t1.353-1.217q.579-.532.7-.621a.605.605,0,0,1,.528-.1.507.507,0,0,1,.3.292.862.862,0,0,1,.041.47m-6.741.032a6.389,6.389,0,0,0,1.065-.781,2.713,2.713,0,0,0,.687-1.026,5.559,5.559,0,0,0-.992.821,6,6,0,0,0-.761.987" transform="translate(-56.294 -2.072)" fill="#fff"/>
    <path id="Path_2" data-name="Path 2" d="M54.991,83.6c0-10.944-8.5-14.5-25.37-19.119C13.028,59.994.411,53.665.411,33.755c0-14.767,11.382-28.612,32.5-28.612,12.616,0,19.747,4.087,24.41,4.087,2.332,0,3.017-.923,3.977-2.637h1.508l.96,26.635H61.573C54.579,21.1,45.254,7.912,31.13,7.912c-9.874,0-16.731,5.538-16.731,13.317,0,9.757,9.325,13.054,23.176,16.613C52.8,41.8,69.664,46.808,69.664,68.7c0,18.987-13.439,31.513-33.6,31.513-13.3,0-24.821-3.956-28.661-3.956-2.194,0-3.017,1.45-4.114,3.956H1.371L0,68.828H2.332C9.188,82.013,22.49,97.44,37.575,97.44c8.228,0,17.416-4.22,17.416-13.845M113.957,34.81c21.53,0,30.718,10.416,29.9,30.062H105.18v5.143c0,15.559,2.88,26.107,16.182,26.107,10.148,0,17-6.2,20.022-16.35l2.468.4c-3.154,11.339-10.285,20.042-29.758,20.042-24.41,0-35.38-13.45-35.38-32.569,0-22.811,16.182-32.831,35.243-32.831m5.486,27.425V55.774c0-13.845-1.1-18.459-6.72-18.459-4.8,0-7.405,4.483-7.405,18.459v6.461Zm64.04-26.107v12.13c2.331-6.593,6.857-13.449,20.433-13.449,12.753,0,21.256,6.065,21.256,22.019V96.517h7.679v2.373H194.042V96.517h5.622V53.665c0-11.208-1.646-12.526-5.074-12.526-5.759,0-11.108,8.307-11.108,18.987V96.517h5.9v2.373H150.433V96.517h7.543V38.5h-7.543V36.128ZM242.038,38.5H234.5V36.128h7.542V19.119l25.507-6.065V36.128h17.827V38.5H267.545V82.937c0,7.779,1.234,12,6.033,12,6.583,0,10.7-5.8,11.931-14.767l2.331.264c-1.234,10.284-5.759,19.778-22.489,19.778-13.577,0-23.313-3.824-23.313-20.174Zm81.457-2.373V96.517h7.68v2.373h-40.73V96.517h7.543V38.5H289.9V36.128ZM311.153,2.506c8.5,0,13.576,4.087,13.576,12.13,0,6.988-3.977,12.394-13.851,12.394-11.108,0-13.713-6.724-13.713-12.262,0-6.461,3.7-12.262,13.988-12.262M368.61,36.128v12.13c2.331-6.593,6.857-13.449,20.433-13.449,12.753,0,21.255,6.065,21.255,22.019V96.517h7.68v2.373H379.169V96.517h5.623V53.665c0-11.208-1.646-12.526-5.074-12.526-5.759,0-11.108,8.307-11.108,18.987V96.517h5.9v2.373H335.561V96.517H343.1V38.5h-7.542V36.128Zm88.314-1.318c21.53,0,30.719,10.416,29.9,30.062H448.147v5.143c0,15.559,2.88,26.107,16.182,26.107,10.147,0,17-6.2,20.021-16.35l2.469.4c-3.154,11.339-10.285,20.042-29.758,20.042-24.41,0-35.38-13.45-35.38-32.569,0-22.811,16.182-32.831,35.243-32.831m5.486,27.425V55.774c0-13.845-1.1-18.459-6.72-18.459-4.8,0-7.405,4.483-7.405,18.459v6.461ZM526.174,0V96.517h7.68v2.373h-40.73V96.517h7.543V2.373h-8.092V0Z" fill="#fff"/>
  </g>
</svg>
